<svg xmlns="http://www.w3.org/2000/svg" version="1.1" xmlns:xlink="http://www.w3.org/1999/xlink" xmlns:svgjs="http://svgjs.dev/svgjs" viewBox="0 0 800 800"><defs><linearGradient x1="50%" y1="0%" x2="50%" y2="100%" id="ccchaos-grad"><stop stop-color="hsl(206, 75%, 49%)" stop-opacity="1" offset="0%"></stop><stop stop-color="hsl(331, 90%, 56%)" stop-opacity="1" offset="100%"></stop></linearGradient></defs><g stroke-width="2" stroke="url(#ccchaos-grad)" fill="none" stroke-linecap="round"><path d="M409.19 104.43C419.28 102.75 429.58 101.9 440.07 101.88 450.58 102.25 461.29 103.48 472.14 105.53 482.98 107.97 493.93 111.19 504.88 115.15 515.74 119.42 526.5 124.33 536.99 129.83 547.21 135.51 556.97 141.68 566.07 148.26 574.62 154.9 582.27 161.86 588.82 169.08 594.58 176.23 599.07 183.59 602.21 191.11 604.57 198.48 605.68 205.98 605.66 213.58 605.36 221.01 604.44 228.53 603.27 236.14 602.82 243.57 602.93 251.11 604.06 258.77 606.99 266.26 611.61 273.91 618.1 281.71 626.78 289.38 637.22 297.24 649.11 305.3 662.12 313.27 675.42 321.47 688.2 329.91 699.89 338.3 709.45 346.94 716.1 355.86 719.75 364.74 719.71 373.92 715.92 383.38 709.29 392.83 699.87 402.59 688.52 412.65 676.93 422.71 665.82 432.85 656.2 443.03 649.13 453.22 644.73 463.45 643.13 473.7 644.63 483.95 648.37 494.19 653.69 504.39 660.45 514.57 667.26 524.67 673.32 534.62 678.59 544.51 681.85 554.21 682.75 563.64 681.6 572.92 677.81 581.86 671.56 590.38 663.41 598.65 653.36 606.41 641.88 613.56 629.48 620.37 616.45 626.49 603.22 631.84 590.09 636.79 577.33 640.92 565.13 644.19 553.6 647.06 542.81 649.09 532.75 650.29 523.45 651.2 514.76 651.4 506.55 650.94 498.91 650.44 491.52 649.5 484.23 648.21 477.27 647.24 470.2 646.19 462.94 645.2 455.79 644.88 448.32 644.85 440.46 645.22 432.63 646.51 424.36 648.33 415.65 650.7 406.93 654.03 397.76 657.84 388.16 662.06 378.57 666.98 368.81 671.92 358.94 676.69 349.11 681.67 339.22 686.12 329.34 689.89 319.56 693.38 309.85 695.9 300.3 697.36 290.92 698.2 281.78 697.83 272.96 696.26 264.38 693.94 256.21 690.42 248.52 685.78 241.12 680.45 234.24 674.11 227.95 666.89 221.9 659.17 216.4 650.73 211.45 641.72 206.6 632.43 202.18 622.72 198.11 612.72 193.88 602.64 189.83 592.39 185.86 582.05 181.46 571.76 176.98 561.46 172.36 551.19 167.17 541.05 161.81 530.95 156.31 520.94 150.38 511.06 144.46 501.24 138.7 491.49 132.88 481.85 127.51 472.25 122.76 462.68 118.41 453.19 114.93 443.7 112.47 434.21 110.62 424.76 109.83 415.29 110.07 405.8 110.77 396.32 112.29 386.8 114.47 377.26 116.6 367.73 118.99 358.39 121.46 349.28 123.4 340.17 125.24 331.29 126.92 322.66 127.98 314.04 128.99 305.7 130.02 297.64 130.73 289.61 131.74 281.89 133.19 274.51 134.78 267.16 137.09 260.15 140.19 253.51 143.77 246.89 148.28 240.63 153.68 234.75 159.63 228.86 166.41 223.32 173.9 218.14 181.77 212.91 190.17 207.99 198.95 203.37 207.82 198.63 216.89 194.13 226.06 189.87 235.07 185.41 244.07 181.11 253.01 176.97 261.67 172.55 270.26 168.24 278.8 164.02 287.04 159.49 295.27 155.03 303.55 150.66 311.59 145.98 319.75 141.42 328.08 137 336.25 132.35 344.66 127.92 353.34 123.77 361.94 119.54 370.87 115.69 380.17 112.33 389.42 109.06 399.09 106.4 409.18 104.43" stroke-dasharray="9 5" transform="rotate(0, 400, 400)" opacity="0.33"></path><path d="M415.57 115.15C425.42 113.48 435.4 112.61 445.48 112.53 455.58 112.82 465.76 113.92 475.98 115.82 486.16 118.08 496.31 121.11 506.33 124.83 516.21 128.87 525.83 133.54 535.05 138.78 543.95 144.21 552.26 150.13 559.83 156.47 566.88 162.88 572.98 169.63 578.02 176.66 582.41 183.66 585.67 190.87 587.77 198.26 589.36 205.53 590 212.95 589.85 220.48 589.74 227.85 589.37 235.33 589.08 242.91 589.73 250.32 591.15 257.84 593.71 265.46 598.03 272.94 603.94 280.55 611.53 288.29 620.97 295.92 631.83 303.71 643.75 311.68 656.39 319.56 668.99 327.65 680.81 335.94 691.39 344.18 699.81 352.65 705.43 361.36 708.27 370.04 707.71 378.98 703.74 388.18 697.25 397.36 688.24 406.82 677.48 416.55 666.5 426.28 655.9 436.05 646.58 445.85 639.51 455.64 634.79 465.46 632.59 475.25 633.25 485.03 636.02 494.78 640.39 504.45 646.3 514.08 652.51 523.59 658.31 532.93 663.7 542.19 667.5 551.22 669.34 559.95 669.49 568.53 667.27 576.74 662.77 584.5 656.47 592.04 648.22 599.04 638.4 605.45 627.49 611.55 615.66 616.99 603.33 621.69 590.79 626.04 578.28 629.64 566.05 632.44 554.21 634.92 542.91 636.64 532.19 637.63 522.07 638.4 512.52 638.55 503.46 638.14 494.93 637.76 486.74 636.99 478.78 635.96 471.16 635.26 463.58 634.51 455.97 633.83 448.52 633.8 440.9 634.03 433.04 634.63 425.23 636.08 417.12 637.99 408.7 640.37 400.27 643.63 391.5 647.31 382.41 651.33 373.31 656 364.13 660.66 354.91 665.16 345.72 669.86 336.53 674.08 327.43 677.68 318.41 681.06 309.52 683.55 300.85 685.09 292.33 686.09 284.09 685.99 276.21 684.78 268.52 682.91 261.26 679.92 254.47 675.87 247.9 671.19 241.82 665.54 236.26 659.03 230.86 652.03 225.92 644.31 221.43 636 216.92 627.38 212.73 618.32 208.79 608.91 204.6 599.38 200.48 589.62 196.36 579.73 191.78 569.84 187.07 559.88 182.2 549.92 176.79 540.03 171.23 530.17 165.56 520.36 159.53 510.65 153.57 500.98 147.82 491.39 142.09 481.89 136.85 472.42 132.27 463.02 128.12 453.67 124.86 444.35 122.6 435.06 120.96 425.81 120.36 416.56 120.76 407.32 121.61 398.1 123.23 388.88 125.51 379.68 127.74 370.48 130.2 361.5 132.73 352.77 134.76 344.04 136.66 335.56 138.39 327.34 139.51 319.13 140.52 311.2 141.52 303.56 142.15 295.94 143.01 288.62 144.23 281.64 145.52 274.66 147.44 268.01 150.08 261.72 153.14 255.42 157.06 249.46 161.84 243.85 167.17 238.2 173.32 232.88 180.22 227.88 187.55 222.8 195.47 218 203.85 213.47 212.43 208.8 221.29 204.35 230.34 200.1 239.34 195.64 248.4 191.33 257.47 187.16 266.34 182.72 275.17 178.37 283.95 174.12 292.5 169.57 301.02 165.09 309.55 160.71 317.87 156.05 326.26 151.51 334.74 147.12 343.09 142.54 351.6 138.17 360.32 134.1 368.96 129.95 377.86 126.19 387.06 122.9 396.22 119.71 405.72 117.1 415.56 115.15" stroke-dasharray="4 0" transform="rotate(4.04, 400, 400)" opacity="0.33"></path><path d="M420.13 125.88C429.68 124.22 439.27 123.33 448.86 123.19 458.44 123.4 468 124.38 477.46 126.13 486.87 128.22 496.12 131.03 505.11 134.53 513.93 138.33 522.37 142.74 530.3 147.71 537.91 152.89 544.86 158.54 551.03 164.62 556.75 170.79 561.56 177.31 565.39 184.12 568.74 190.92 571.14 197.96 572.62 205.18 573.85 212.33 574.41 219.62 574.51 227.04 574.92 234.34 575.36 241.75 576.14 249.25 577.99 256.62 580.74 264.1 584.66 271.66 590.23 279.1 597.23 286.66 605.68 294.34 615.64 301.91 626.68 309.63 638.41 317.49 650.53 325.28 662.32 333.24 673.12 341.39 682.59 349.48 689.92 357.77 694.58 366.28 696.67 374.75 695.65 383.45 691.55 392.38 685.22 401.3 676.63 410.45 666.44 419.83 656.06 429.22 645.97 438.62 636.96 448 629.93 457.39 624.97 466.76 622.24 476.07 622.12 485.37 623.99 494.6 627.42 503.71 632.45 512.78 637.96 521.7 643.36 530.4 648.66 539.02 652.78 547.38 655.31 555.41 656.5 563.3 655.64 570.8 652.7 577.84 648.13 584.67 641.65 590.98 633.55 596.7 624.27 602.14 613.87 606.95 602.72 611.08 591.12 614.91 579.26 618.04 567.4 620.46 555.68 622.61 544.25 624.1 533.24 624.93 522.63 625.62 512.5 625.78 502.82 625.45 493.58 625.2 484.71 624.64 476.14 623.86 467.89 623.42 459.8 622.97 451.8 622.59 443.98 622.82 436.12 623.3 428.17 624.1 420.29 625.68 412.25 627.66 404.02 630.05 395.79 633.24 387.36 636.78 378.71 640.61 370.06 645.03 361.41 649.42 352.81 653.65 344.24 658.08 335.75 662.07 327.4 665.49 319.13 668.74 311.04 671.2 303.22 672.78 295.52 673.91 288.12 674.04 281.11 673.16 274.24 671.68 267.79 669.17 261.78 665.68 255.91 661.6 250.49 656.61 245.51 650.78 240.59 644.49 236.04 637.48 231.84 629.87 227.53 621.94 223.42 613.54 219.47 604.76 215.19 595.82 210.92 586.62 206.58 577.23 201.76 567.8 196.8 558.26 191.67 548.68 186.05 539.13 180.3 529.56 174.5 520.03 168.41 510.56 162.46 501.12 156.77 491.74 151.17 482.43 146.11 473.16 141.73 463.96 137.82 454.8 134.8 445.68 132.76 436.62 131.35 427.58 130.93 418.57 131.48 409.61 132.46 400.65 134.19 391.73 136.55 382.85 138.85 373.97 141.38 365.34 143.97 356.97 146.08 348.6 148.05 340.49 149.85 332.65 151.03 324.82 152.08 317.26 153.07 310.01 153.66 302.75 154.42 295.79 155.46 289.16 156.49 282.52 158.06 276.19 160.27 270.19 162.83 264.17 166.19 258.46 170.35 253.07 175.02 247.63 180.51 242.49 186.75 237.62 193.45 232.67 200.79 227.96 208.65 223.49 216.79 218.87 225.29 214.44 234.06 210.19 242.89 205.73 251.86 201.4 260.9 197.2 269.83 192.73 278.78 188.36 287.7 184.07 296.45 179.52 305.19 175.04 313.91 170.66 322.46 166.03 331.05 161.52 339.68 157.19 348.2 152.67 356.82 148.39 365.57 144.39 374.26 140.34 383.13 136.67 392.21 133.45 401.27 130.34 410.57 127.79 420.12 125.88" stroke-dasharray="9 4" transform="rotate(8.08, 400, 400)" opacity="0.42"></path><path d="M422.34 136.6C431.54 134.96 440.66 134.05 449.68 133.86 458.68 133.99 467.54 134.86 476.2 136.45 484.78 138.37 493.09 140.99 501.03 144.25 508.8 147.8 516.1 151.96 522.83 156.65 529.27 161.56 535.03 166.94 540.03 172.74 544.67 178.65 548.49 184.91 551.47 191.47 554.15 198.05 556.07 204.88 557.32 211.91 558.56 218.89 559.41 226.03 560.07 233.31 561.24 240.49 562.67 247.79 564.62 255.2 567.69 262.49 571.71 269.88 576.86 277.36 583.49 284.74 591.36 292.23 600.43 299.81 610.67 307.31 621.66 314.93 633.03 322.68 644.48 330.36 655.37 338.2 665.12 346.18 673.5 354.12 679.78 362.23 683.53 370.52 684.95 378.78 683.53 387.24 679.34 395.88 673.2 404.52 665.02 413.35 655.4 422.38 645.6 431.41 636.02 440.41 627.35 449.38 620.4 458.34 615.25 467.24 612.07 476.06 611.25 484.86 612.26 493.56 614.79 502.1 618.91 510.6 623.67 518.91 628.55 526.98 633.59 534.97 637.79 542.67 640.77 550.02 642.76 557.24 643 564.06 641.41 570.42 638.4 576.58 633.6 582.24 627.19 587.33 619.59 592.18 610.76 596.44 600.99 600.06 590.61 603.44 579.72 606.18 568.59 608.28 557.37 610.18 546.22 611.49 535.28 612.23 524.56 612.89 514.18 613.08 504.16 612.87 494.47 612.78 485.13 612.43 476.1 611.91 467.35 611.73 458.82 611.56 450.47 611.46 442.3 611.94 434.19 612.64 426.12 613.62 418.13 615.31 410.1 617.35 402.01 619.74 393.93 622.84 385.76 626.25 377.5 629.88 369.23 634.06 361.07 638.19 353.05 642.15 345.04 646.32 337.19 650.08 329.55 653.32 321.95 656.44 314.6 658.83 307.55 660.44 300.58 661.67 293.93 661.99 287.67 661.38 281.49 660.26 275.7 658.19 270.32 655.2 265 651.69 260.06 647.31 255.49 642.14 250.88 636.53 246.55 630.21 242.47 623.3 238.2 616.06 234.05 608.34 229.96 600.21 225.51 591.9 221.01 583.28 216.4 574.45 211.32 565.54 206.09 556.48 200.71 547.33 194.91 538.18 189.02 528.99 183.13 519.79 177.05 510.63 171.15 501.49 165.58 492.38 160.16 483.33 155.31 474.31 151.18 465.35 147.53 456.43 144.76 447.55 142.97 438.73 141.77 429.94 141.54 421.2 142.24 412.52 143.35 403.84 145.17 395.22 147.59 386.66 149.96 378.1 152.54 369.8 155.18 361.78 157.36 353.75 159.41 345.98 161.27 338.5 162.53 331.01 163.65 323.8 164.67 316.88 165.25 309.96 165.95 303.32 166.85 296.99 167.67 290.64 168.96 284.59 170.79 278.85 172.88 273.06 175.7 267.57 179.26 262.36 183.28 257.09 188.08 252.08 193.63 247.33 199.63 242.47 206.3 237.82 213.54 233.39 221.11 228.81 229.11 224.39 237.46 220.12 245.95 215.66 254.65 211.31 263.49 207.07 272.33 202.59 281.22 198.19 290.14 193.89 298.96 189.33 307.78 184.86 316.59 180.5 325.28 175.91 333.98 171.46 342.69 167.18 351.32 162.75 359.99 158.55 368.74 154.64 377.43 150.7 386.24 147.13 395.16 143.99 404.07 140.97 413.13 138.48 422.33 136.6" stroke-dasharray="8 3" transform="rotate(12.12, 400, 400)" opacity="0.83"></path><path d="M421.93 147.32C430.72 145.71 439.33 144.79 447.74 144.55 456.13 144.6 464.27 145.36 472.11 146.8 479.87 148.55 487.27 150.96 494.23 154 501.03 157.31 507.32 161.19 513.01 165.61 518.48 170.23 523.28 175.32 527.39 180.83 531.26 186.46 534.43 192.44 536.92 198.73 539.28 205.07 541.1 211.65 542.49 218.45 544.05 225.23 545.46 232.18 546.91 239.28 549 246.31 551.5 253.47 554.64 260.73 558.87 267.91 564.03 275.19 570.24 282.56 577.71 289.84 586.21 297.22 595.64 304.69 605.92 312.09 616.66 319.6 627.49 327.21 638.16 334.76 648.1 342.45 656.79 350.26 664.1 358.03 669.39 365.95 672.31 374.01 673.12 382.04 671.37 390.24 667.13 398.59 661.19 406.93 653.42 415.44 644.36 424.09 635.14 432.75 626.06 441.35 617.74 449.88 610.91 458.4 605.62 466.83 602.06 475.15 600.62 483.44 600.85 491.6 602.52 499.57 605.75 507.5 609.71 515.21 613.96 522.66 618.6 530.02 622.7 537.09 625.9 543.79 628.96 553.46 625.72 570.36 619.25 577.42 613.31 581.75 606.08 585.53 597.82 588.72 588.84 591.71 579.17 594.14 569.06 595.99 558.68 597.7 548.15 598.88 537.64 599.57 527.18 600.24 516.89 600.52 506.86 600.44 497.02 600.52 487.47 600.39 478.21 600.12 469.15 600.2 460.34 600.29 451.75 600.46 443.31 601.16 435.02 602.05 426.86 603.19 418.77 604.98 410.74 607.06 402.76 609.43 394.8 612.45 386.85 615.71 378.92 619.16 370.99 623.1 363.25 626.97 355.73 630.68 348.21 634.59 340.92 638.12 333.89 641.18 326.88 644.15 320.16 646.47 313.75 648.08 304.37 649.61 287.4 647.84 279.82 644.47 274.87 641.48 270.23 637.67 265.88 633.11 261.42 628.15 257.16 622.5 253.05 616.27 248.7 609.72 244.39 602.67 240.08 595.2 235.39 587.54 230.61 579.55 225.71 571.3 220.37 562.95 214.9 554.42 209.31 545.76 203.36 537.08 197.39 528.31 191.48 519.52 185.45 510.73 179.67 501.94 174.26 493.16 169.07 484.42 164.48 475.7 160.62 467.03 157.26 458.39 154.77 449.8 153.22 441.26 152.25 432.75 152.2 424.29 153.04 415.9 154.26 407.52 156.16 399.2 158.62 390.96 161.05 382.72 163.67 374.75 166.36 367.05 168.6 359.34 170.72 351.9 172.66 344.74 174.02 337.57 175.21 330.67 176.28 324.06 176.9 317.43 177.57 311.08 178.39 305.02 179.58 296.02 184.46 279.34 188.61 271.62 192 266.48 196.12 261.58 200.95 256.91 206.23 252.12 212.17 247.53 218.71 243.12 225.6 238.56 232.98 234.14 240.76 229.86 248.75 225.39 257.03 221.02 265.51 216.76 274.06 212.27 282.74 207.87 291.47 203.55 300.2 199.01 308.95 194.57 317.69 190.23 326.38 185.7 335.08 181.32 343.76 177.11 352.39 172.77 361.03 168.67 369.68 164.86 378.31 161.03 386.97 157.56 395.68 154.52 404.37 151.59 413.13 149.17 421.92 147.33" stroke-dasharray="11 7" transform="rotate(16.16, 400, 400)" opacity="0.69"></path><path d="M418.95 158.05C427.29 156.46 435.36 155.53 443.15 155.24 450.91 155.23 458.35 155.88 465.42 157.17 472.42 158.76 479 160.97 485.1 163.77 491.08 166.84 496.54 170.46 501.42 174.59 506.15 178.92 510.28 183.71 513.81 188.91 517.21 194.24 520.07 199.93 522.41 205.93 524.79 211.99 526.82 218.31 528.62 224.85 530.75 231.39 532.91 238.12 535.29 245 538.36 251.84 541.95 258.82 546.21 265.9 551.49 272.92 557.62 280.05 564.66 287.27 572.73 294.42 581.61 301.66 591.16 308.98 601.27 316.25 611.58 323.61 621.74 331.06 631.54 338.46 640.48 345.98 648.12 353.59 654.39 361.17 658.75 368.87 660.92 376.69 661.19 384.48 659.16 392.41 654.92 400.45 649.19 408.48 641.84 416.64 633.32 424.92 624.66 433.19 616.08 441.37 608.12 449.45 601.44 457.53 596.08 465.48 592.21 473.29 590.23 481.07 589.75 488.69 590.61 496.1 592.97 503.46 596.11 510.59 599.68 517.44 603.79 524.2 607.61 530.66 610.82 536.76 614.47 545.53 614.15 560.74 609.76 567.04 605.36 570.91 599.71 574.27 592.97 577.1 585.48 579.79 577.18 581.96 568.29 583.62 559.01 585.19 549.39 586.31 539.62 587 529.75 587.72 519.9 588.09 510.16 588.18 500.5 588.44 491.03 588.53 481.78 588.51 472.67 588.83 463.78 589.16 455.11 589.57 446.57 590.47 438.2 591.54 430.01 592.82 421.89 594.68 413.9 596.79 406.04 599.14 398.2 602.05 390.46 605.17 382.81 608.44 375.16 612.14 367.78 615.77 360.68 619.23 353.58 622.88 346.75 626.18 340.22 629.06 333.69 631.87 327.46 634.11 321.56 635.7 312.87 637.33 297.07 636.26 289.92 633.48 285.17 630.96 280.67 627.68 276.37 623.7 271.91 619.34 267.57 614.34 263.32 608.76 258.78 602.88 254.24 596.5 249.65 589.7 244.69 582.69 239.62 575.33 234.44 567.7 228.87 559.95 223.19 551.98 217.43 543.86 211.41 535.68 205.42 527.4 199.55 519.05 193.64 510.7 188.04 502.31 182.86 493.92 177.94 485.54 173.65 477.17 170.09 468.84 167.03 460.52 164.82 452.25 163.52 444.03 162.78 435.83 162.9 427.67 163.87 419.6 165.2 411.53 167.16 403.52 169.66 395.6 172.12 387.68 174.78 380.02 177.5 372.63 179.8 365.24 181.99 358.11 184.01 351.25 185.46 344.37 186.75 337.76 187.9 331.42 188.58 325.06 189.27 318.96 190.04 313.13 191.05 304.46 195.01 288.3 198.44 280.77 201.23 275.75 204.71 270.94 208.84 266.32 213.38 261.59 218.56 257.03 224.34 252.64 230.49 248.09 237.16 243.67 244.26 239.38 251.62 234.9 259.32 230.53 267.27 226.25 275.37 221.77 283.65 217.37 292.04 213.06 300.48 208.55 308.99 204.14 317.51 199.86 326.04 195.4 334.57 191.09 343.08 186.97 351.58 182.74 360.07 178.75 368.53 175.05 376.97 171.34 385.41 167.98 393.82 165.04 402.22 162.2 410.61 159.85 418.94 158.05" stroke-dasharray="2 10" transform="rotate(20.200000000000003, 400, 400)" opacity="0.21"></path><path d="M413.76 168.77C421.6 167.22 429.13 166.28 436.32 165.95 443.48 165.87 450.28 166.42 456.67 167.57 463 168.99 468.89 171.01 474.32 173.58 482.07 178.08 494.93 189.88 500.06 197 503.3 202.02 506.14 207.4 508.64 213.08 511.29 218.84 513.78 224.87 516.2 231.12 519.05 237.39 522.07 243.86 525.41 250.49 529.46 257.1 534.06 263.85 539.3 270.72 545.44 277.55 552.33 284.49 559.96 291.51 568.39 298.49 577.41 305.55 586.84 312.69 596.59 319.79 606.31 326.97 615.68 334.23 624.56 341.45 632.48 348.77 639.08 356.16 644.38 363.52 647.88 370.99 649.37 378.53 649.17 386.07 646.92 393.7 642.7 401.42 637.2 409.13 630.27 416.93 622.28 424.81 614.17 432.69 606.09 440.45 598.5 448.08 592.01 455.7 586.62 463.17 582.52 470.47 580.07 477.75 578.96 484.84 579.07 491.7 580.6 498.52 582.93 505.09 585.76 511.36 589.26 517.57 592.67 523.46 595.71 528.99 599.59 536.94 601.44 550.64 598.81 556.28 595.79 559.76 591.58 562.77 586.31 565.31 580.31 567.74 573.45 569.72 565.89 571.26 557.87 572.74 549.38 573.84 540.59 574.57 531.58 575.35 522.45 575.85 513.29 576.1 504.11 576.55 495 576.85 486.03 577.07 477.12 577.61 468.38 578.18 459.83 578.81 451.36 579.88 443.07 581.11 434.97 582.5 426.92 584.41 419.04 586.53 411.33 588.84 403.64 591.66 396.1 594.63 388.71 597.71 381.32 601.19 374.24 604.57 367.48 607.79 360.71 611.19 354.24 614.27 348.09 616.96 338.98 620.69 322.27 625.01 314.62 625.36 307.16 624.52 293.22 618.77 286.59 613.92 282 610.13 277.49 605.73 273 600.77 268.22 595.54 263.4 589.81 258.52 583.66 253.29 577.31 247.95 570.59 242.52 563.58 236.77 556.45 230.94 549.07 225.1 541.51 219.08 533.89 213.14 526.13 207.38 518.27 201.66 510.4 196.3 502.46 191.4 494.49 186.8 486.53 182.83 478.55 179.59 470.6 176.85 462.65 174.94 454.73 173.89 446.85 173.36 438.99 173.66 431.17 174.75 423.42 176.16 415.68 178.18 408 180.7 400.4 183.19 392.8 185.86 385.46 188.6 378.37 190.95 371.28 193.2 364.44 195.3 357.86 196.86 351.26 198.25 344.92 199.49 338.82 200.64 329.77 202.7 312.82 204.11 304.89 205.94 297.1 212.44 282.43 217.34 275.49 221.16 270.81 225.6 266.28 230.61 261.9 235.97 257.37 241.86 252.95 248.21 248.65 254.83 244.18 261.84 239.81 269.14 235.53 276.64 231.06 284.36 226.69 292.24 222.41 300.23 217.95 308.32 213.6 316.46 209.37 324.65 205 332.86 200.79 341.06 196.77 349.28 192.66 357.47 188.79 365.62 185.2 373.77 181.62 381.88 178.38 389.91 175.54 397.95 172.8 405.9 170.52 413.75 168.77" stroke-dasharray="1 10" transform="rotate(24.24, 400, 400)" opacity="0.84"></path><path d="M406.95 179.49C414.29 177.98 421.28 177.04 427.92 176.67 434.53 176.53 440.76 176.98 446.59 178 455.07 180.17 469.79 187.56 476.04 192.65 481.85 198.48 491.77 212.34 496.18 220.21 499.3 225.65 502.39 231.36 505.56 237.3 509.19 243.27 513.08 249.45 517.35 255.79 522.28 262.14 527.74 268.63 533.79 275.25 540.58 281.84 547.99 288.54 555.95 295.33 564.5 302.1 573.42 308.95 582.53 315.87 591.75 322.76 600.75 329.73 609.25 336.76 617.17 343.76 624.08 350.84 629.69 357.98 634.07 365.11 636.78 372.31 637.66 379.56 637.06 386.81 634.64 394.13 630.48 401.51 625.23 408.88 618.71 416.31 611.24 423.78 603.66 431.25 596.08 438.59 588.87 445.76 582.59 452.93 577.23 459.93 572.96 466.73 570.12 473.52 568.46 480.09 567.9 486.43 568.65 492.72 570.18 498.76 572.27 504.5 576.54 512.86 584.52 527.77 586.95 534.23 587.78 540.14 583.22 549.73 577.83 553.41 573.24 555.65 567.78 557.49 561.58 558.94 554.89 560.38 547.65 561.49 539.98 562.28 532.04 563.16 523.84 563.79 515.49 564.23 507.04 564.85 498.55 565.37 490.09 565.81 481.63 566.56 473.26 567.33 465.03 568.15 456.83 569.39 448.78 570.74 440.9 572.23 433.06 574.18 425.38 576.29 417.88 578.55 410.39 581.26 403.07 584.09 395.93 586.99 388.79 590.24 381.97 593.39 375.48 596.38 368.97 599.53 362.77 602.39 356.88 604.9 348.15 608.4 332.01 612.64 324.54 613.15 317.16 612.64 303.06 607.93 296.18 603.78 291.4 600.51 286.64 596.67 281.88 592.3 276.84 587.68 271.75 582.58 266.58 577.07 261.11 571.35 255.56 565.28 249.94 558.89 244.08 552.38 238.19 545.61 232.35 538.64 226.39 531.59 220.59 524.37 215.02 517.05 209.56 509.68 204.49 502.23 199.91 494.73 195.67 487.22 192.05 479.67 189.16 472.13 186.75 464.59 185.13 457.06 184.33 449.56 184.02 442.06 184.47 434.6 185.67 427.2 187.16 419.8 189.21 412.46 191.74 405.19 194.24 397.92 196.92 390.89 199.66 384.1 202.05 377.31 204.36 370.75 206.53 364.43 208.2 358.1 209.7 352 211.05 346.13 212.35 337.4 214.48 320.99 215.74 313.27 217.22 305.66 222.49 291.24 226.52 284.38 229.68 279.74 233.4 275.24 237.66 270.87 242.23 266.36 247.32 261.96 252.87 257.66 258.7 253.22 264.93 248.86 271.49 244.59 278.26 240.16 285.3 235.82 292.55 231.59 299.92 227.2 307.45 222.92 315.06 218.78 322.75 214.51 330.49 210.41 338.24 206.5 346.03 202.52 353.8 198.78 361.52 195.32 369.27 191.87 376.95 188.76 384.53 186.02 392.13 183.39 399.61 181.2 406.94 179.5" stroke-dasharray="0 7" transform="rotate(28.28, 400, 400)" opacity="0.63"></path><path d="M399.34 190.22C406.16 188.74 412.65 187.8 418.8 187.4 427.81 187.39 443.98 190.38 451.11 193.33 457.86 197.08 469.75 207.12 475.06 213.28 478.66 217.64 482.12 222.35 485.53 227.35 489.22 232.45 492.98 237.82 496.91 243.42 501.3 249.07 505.99 254.92 511.07 260.95 516.73 266.99 522.86 273.19 529.49 279.51 536.7 285.83 544.37 292.26 552.43 298.78 560.86 305.29 569.47 311.88 578.09 318.55 586.64 325.19 594.83 331.91 602.41 338.68 609.35 345.43 615.26 352.24 619.93 359.1 623.46 365.96 625.46 372.86 625.82 379.81 624.88 386.75 622.34 393.73 618.27 400.75 613.28 407.77 607.16 414.81 600.2 421.87 593.14 428.93 586.04 435.83 579.23 442.56 573.19 449.27 567.91 455.8 563.52 462.13 560.38 468.43 558.26 474.52 557.1 480.35 557.52 488.92 562.53 504.58 565.94 511.58 571.43 523.74 571.32 538.09 567.61 541.48 562.19 544.46 546.86 548.75 537.4 550.2 530.63 551.18 523.5 551.96 516.12 552.57 508.58 553.37 500.9 554.08 493.15 554.73 485.35 555.67 477.55 556.63 469.81 557.62 462.07 558.98 454.42 560.44 446.89 562 439.38 563.97 432.01 566.06 424.79 568.27 417.58 570.86 410.52 573.54 403.63 576.27 396.73 579.3 390.15 582.22 383.88 584.98 377.59 587.9 371.59 590.55 365.87 592.87 357.36 596.14 341.48 600.25 334.01 600.88 326.55 600.63 312.03 596.83 304.82 593.31 299.82 590.52 294.81 587.19 289.78 583.37 284.49 579.32 279.15 574.82 273.76 569.91 268.12 564.81 262.43 559.36 256.71 553.59 250.82 547.7 244.97 541.54 239.21 535.16 233.42 528.69 227.83 522.05 222.53 515.27 217.39 508.44 212.66 501.51 208.45 494.5 204.59 487.47 201.35 480.39 198.81 473.29 196.74 466.18 195.41 459.07 194.85 451.96 194.74 444.87 195.34 437.79 196.63 430.75 198.18 423.71 200.26 416.72 202.78 409.78 205.27 402.85 207.94 396.13 210.68 389.64 213.11 383.14 215.46 376.86 217.69 370.79 220.27 361.78 224.03 344.76 225.4 336.74 226.35 328.85 228.79 313.89 230.68 306.78 233.08 299.7 240.46 286.09 245.55 279.51 249.38 275.04 253.69 270.66 258.44 266.39 263.46 261.98 268.87 257.65 274.64 253.42 280.62 249.05 286.9 244.78 293.4 240.6 300.06 236.3 306.9 232.12 313.87 228.07 320.93 223.93 328.08 219.95 335.26 216.17 342.49 212.34 349.74 208.74 356.94 205.41 364.18 202.11 371.35 199.12 378.43 196.5 385.52 193.97 392.5 191.87 399.33 190.22" stroke-dasharray="0 7" transform="rotate(32.32, 400, 400)" opacity="0.12"></path><path d="M391.79 200.94C401.14 199.05 418.3 198.04 426.1 198.94 433.58 200.63 447.11 206.66 453.25 210.92 459.31 215.83 471.03 227.7 476.99 234.52 481.26 239.27 485.68 244.28 490.32 249.52 495.36 254.82 500.72 260.33 506.44 266.01 512.63 271.72 519.21 277.59 526.17 283.59 533.56 289.59 541.25 295.71 549.16 301.93 557.28 308.14 565.4 314.44 573.37 320.81 581.15 327.16 588.46 333.59 595.09 340.06 601.06 346.52 606.03 353.04 609.82 359.59 612.56 366.14 613.93 372.72 613.83 379.33 612.62 385.94 610.01 392.57 606.06 399.21 601.34 405.86 595.63 412.51 589.16 419.15 582.61 425.79 575.99 432.26 569.58 438.54 563.81 444.81 558.64 450.89 554.21 456.75 549.58 465.4 546.08 481.45 546.77 488.79 549 495.77 554.53 508.13 556.88 513.45 555.23 527.42 540.27 536.76 532.6 538.35 527.01 539.44 521.01 540.36 514.67 541.14 508.15 542.11 501.4 543 494.49 543.84 487.5 544.95 480.42 546.06 473.32 547.2 466.19 548.66 459.07 550.2 452.02 551.81 444.97 553.79 437.99 555.85 431.13 557.98 424.27 560.46 417.52 563 410.9 565.54 404.27 568.37 397.92 571.07 391.84 573.61 385.74 576.3 379.89 578.73 374.28 580.87 365.91 583.91 350.06 587.83 342.49 588.55 334.87 588.5 319.83 585.48 312.28 582.52 307.07 580.15 301.83 577.3 296.57 573.98 291.1 570.46 285.59 566.52 280.05 562.18 274.33 557.67 268.59 552.82 262.88 547.65 257.07 542.36 251.35 536.8 245.77 531.01 240.23 525.13 234.93 519.07 229.96 512.84 225.19 506.57 220.86 500.16 217.05 493.67 213.59 487.15 210.74 480.56 208.57 473.92 206.82 467.27 205.78 460.6 205.45 453.91 205.53 447.23 206.26 440.55 207.63 433.89 209.23 427.24 211.32 420.6 213.82 414.01 216.29 407.42 218.94 401.03 221.66 394.83 224.1 388.63 226.49 382.62 228.78 376.8 231.5 368.16 235.65 351.75 237.19 343.98 238.25 336.32 240.61 321.71 242.23 314.73 244.17 307.77 250.18 294.32 254.36 287.8 257.5 283.38 261.08 279.05 265.09 274.82 269.31 270.47 273.93 266.2 278.89 262.03 284.05 257.74 289.52 253.54 295.25 249.46 301.13 245.26 307.21 241.19 313.46 237.26 319.8 233.26 326.27 229.42 332.79 225.78 339.39 222.1 346.02 218.65 352.63 215.47 359.29 212.31 365.9 209.46 372.44 206.96 379 204.55 385.46 202.53 391.78 200.94" stroke-dasharray="9 6" transform="rotate(36.36, 400, 400)" opacity="0.21"></path><path d="M385.21 211.66C393.89 209.82 410.02 208.72 417.48 209.46 427.29 211.29 436.28 214.92 444.62 220.15 453.34 226 461.92 233.29 470.71 241.75 480.59 250.61 491.35 260.45 503.22 271.02 516.54 281.76 530.95 293.1 545.93 304.83 561.11 316.6 575.33 328.71 587.26 340.99 596.6 353.27 601.69 365.73 601.73 378.22 600.31 384.48 597.66 390.74 593.86 396.99 589.41 403.25 584.1 409.5 578.12 415.71 572.07 421.93 565.92 427.97 559.91 433.81 554.43 439.65 549.41 445.29 544.99 450.71 538.89 461.5 535.64 471.37 534.82 480.19 536.86 488.87 539.59 496.43 541.91 502.77 544.6 511.5 536.59 523.21 525.53 526.75 516.31 529.29 505.48 531.36 493.6 533.13 481.28 535.88 468.43 538.7 455.48 541.67 448.98 543.63 442.49 545.64 436.05 547.7 429.6 550.06 423.21 552.44 416.89 554.82 410.57 557.44 404.46 559.92 398.57 562.25 392.66 564.72 386.94 566.94 381.41 568.9 370.24 572.86 359.65 575.34 349.52 576.17 339 576.48 328.66 574.88 318.39 571.45 307.51 567.29 296.52 561.35 285.5 553.89 274.02 545.85 262.76 536.5 252.11 526.16 241.82 515.49 232.84 504.06 225.75 492.15 220.03 480.12 216.75 467.75 216.15 455.26 216.39 449.01 217.25 442.75 218.67 436.48 220.31 430.22 222.39 423.96 224.86 417.72 227.3 411.49 229.91 405.42 232.6 399.52 235.04 393.62 237.45 387.88 239.78 382.32 243.26 371.15 246.28 360.62 248.91 350.72 250.26 340.68 251.85 331.18 254.05 322.21 256.05 312.97 259.34 304.13 264.05 295.72 269.31 286.93 276.18 278.47 284.44 270.4 293.35 261.93 303.43 253.86 314.31 246.35 325.6 238.61 337.39 231.57 349.34 225.5 355.37 222.5 361.4 219.79 367.39 217.41 373.39 215.12 379.34 213.19 385.2 211.67" stroke-dasharray="5 2" transform="rotate(40.400000000000006, 400, 400)" opacity="0.87"></path><path d="M380.36 222.39C391.22 219.87 401.41 219.1 410.93 220.01 420.52 221.56 429.63 224.77 438.41 229.47 447.61 234.73 456.94 241.34 466.65 249.07 477.29 257.18 488.76 266.25 501.12 276.04 514.46 286.03 528.46 296.61 542.51 307.59 556.31 318.63 568.82 330.02 578.9 341.57 586.52 353.14 590.26 364.87 589.52 376.61 585.64 388.35 577.86 400.11 567.09 411.7 556.05 423.29 545.22 434.14 535.87 444.15 529.44 454.12 525.36 463.19 523.43 471.26 524.14 479.24 525.72 486.19 527.27 492.05 529.72 500.21 524.72 511.64 516.3 515.43 509.1 518.18 500.24 520.53 490.16 522.61 479.63 525.56 468.34 528.53 456.64 531.57 444.85 535.68 432.87 539.92 420.91 544.1 408.95 549.11 397.54 553.47 386.69 556.97 375.72 560.61 365.11 562.91 354.81 563.77 344.18 564.22 333.63 562.99 323.11 560.12 312.14 556.65 301.13 551.57 290.2 545.07 279.07 538.06 268.32 529.81 258.34 520.58 248.88 511.04 240.8 500.72 234.6 489.85 229.71 478.86 227.09 467.47 226.93 455.88 228 444.27 231.1 432.52 235.9 420.77 240.58 409.03 245.68 397.83 250.69 387.23 254.36 376.58 257.63 366.46 260.52 356.89 262.16 347.2 263.91 337.96 266.07 329.18 267.84 320.17 270.61 311.52 274.55 303.26 278.81 294.68 284.46 286.41 291.39 278.54 298.81 270.35 307.38 262.56 316.82 255.34 326.6 247.95 336.99 241.26 347.7 235.5 358.53 229.87 369.5 225.41 380.35 222.39" stroke-dasharray="9 2" transform="rotate(44.44, 400, 400)" opacity="0.25"></path><path d="M377.81 233.11C387.87 230.69 397.58 229.87 406.92 230.6 416.35 231.88 425.6 234.69 434.79 238.87 444.38 243.55 454.26 249.5 464.59 256.5 475.65 263.86 487.4 272.14 499.76 281.12 512.69 290.31 525.88 300.09 538.7 310.27 550.95 320.54 561.69 331.14 569.99 341.91 576.03 352.72 578.57 363.67 577.21 374.61 573.25 385.56 565.95 396.49 556.05 407.24 545.92 417.99 535.83 428.02 526.83 437.23 520.21 446.42 515.49 454.76 512.6 462.17 512.3 472.74 514.93 489.11 514.38 495.03 511.61 500.38 496.13 508.65 484.15 512.27 475.33 515.37 465.56 518.44 455.15 521.51 444.64 525.49 433.68 529.49 422.48 533.37 411.28 537.97 400.35 541.93 389.75 545.08 379.06 548.39 368.54 550.51 358.19 551.35 347.61 551.9 337.04 550.96 326.49 548.56 315.68 545.69 304.89 541.37 294.32 535.74 283.76 529.68 273.71 522.45 264.56 514.27 256.04 505.81 248.93 496.56 243.64 486.72 239.56 476.77 237.57 466.36 237.82 455.68 239.12 444.98 242.26 434.05 246.94 423.05 251.52 412.05 256.52 401.49 261.51 391.41 265.32 381.3 268.82 371.62 271.97 362.41 273.94 353.09 275.92 344.15 278.16 335.61 279.87 326.88 282.34 318.46 285.74 310.41 289.23 302.09 293.91 294.07 299.72 286.45 305.86 278.59 313.09 271.13 321.2 264.24 329.57 257.23 338.64 250.9 348.17 245.47 357.8 240.18 367.74 235.98 377.81 233.11" stroke-dasharray="2 1" transform="rotate(48.48, 400, 400)" opacity="0.48"></path><path d="M377.85 243.84C387.2 241.52 396.47 240.67 405.62 241.22 414.88 242.26 424.2 244.69 433.64 248.37 443.42 252.5 453.57 257.79 464.15 264.07 475.24 270.68 486.83 278.17 498.74 286.33 510.89 294.69 522.94 303.63 534.31 312.97 544.91 322.42 553.89 332.19 560.52 342.14 565.14 352.13 566.66 362.26 564.81 372.38 560.86 382.51 554.06 392.61 545.01 402.52 535.77 412.43 526.42 421.65 517.85 430.12 511.18 438.57 506 446.23 502.33 453.06 500.39 462.85 500.5 478.27 499.76 484.07 497.71 489.45 485.62 498.19 475.77 502.11 468.46 505.3 460.11 508.42 450.96 511.48 441.69 515.3 431.8 519.07 421.42 522.65 411.04 526.84 400.7 530.41 390.47 533.23 380.19 536.21 369.93 538.14 359.73 538.94 349.4 539.53 339.03 538.82 328.73 536.82 318.32 534.45 308.02 530.79 298.06 525.93 288.27 520.73 279.1 514.44 270.91 507.24 263.41 499.8 257.29 491.57 252.89 482.74 249.6 473.8 248.21 464.36 248.81 454.59 250.31 444.79 253.44 434.71 257.98 424.48 262.42 414.24 267.3 404.33 272.22 394.82 276.15 385.27 279.83 376.06 283.23 367.24 285.53 358.33 287.8 349.73 290.21 341.49 292.01 333.08 294.37 324.95 297.43 317.16 300.42 309.17 304.38 301.46 309.31 294.15 314.42 286.66 320.52 279.57 327.48 273.04 334.62 266.45 342.5 260.51 350.97 255.42 359.5 250.48 368.5 246.54 377.85 243.84" stroke-dasharray="2 4" transform="rotate(52.52, 400, 400)" opacity="0.16"></path><path d="M380.48 254.56C389.17 252.36 398 251.49 406.91 251.89 415.92 252.7 425.15 254.77 434.61 257.97 444.32 261.57 454.41 266.23 464.84 271.8 475.56 277.67 486.59 284.36 497.67 291.69 508.72 299.22 519.39 307.31 529.18 315.78 538.11 324.37 545.41 333.29 550.51 342.38 553.87 351.52 554.54 360.8 552.35 370.07 548.47 379.36 542.18 388.62 533.97 397.7 525.59 406.78 517.01 415.24 508.92 423 502.34 430.75 496.87 437.8 492.6 444.1 489.25 453.18 486.74 467.8 485.43 473.5 483.53 478.9 473.65 488 465.49 492.12 459.43 495.36 452.31 498.48 444.31 501.48 436.21 505.12 427.36 508.64 417.86 511.93 408.35 515.72 398.69 518.92 388.98 521.42 379.26 524.08 369.45 525.81 359.64 526.54 349.78 527.14 339.89 526.6 330.1 524.92 320.33 522.98 310.77 519.88 301.63 515.71 292.79 511.28 284.64 505.84 277.5 499.53 271.06 493.04 265.94 485.78 262.41 477.91 259.85 469.94 259 461.45 259.91 452.58 261.56 443.68 264.66 434.45 269.02 424.99 273.29 415.54 278.01 406.31 282.83 397.38 286.82 388.42 290.64 379.73 294.25 371.35 296.88 362.89 299.46 354.69 302.09 346.8 304.09 338.77 306.48 331 309.41 323.54 312.12 315.92 315.61 308.59 319.91 301.64 324.25 294.57 329.47 287.89 335.51 281.77 341.63 275.61 348.51 270.08 356.06 265.35 363.63 260.76 371.79 257.1 380.48 254.56" stroke-dasharray="10 7" transform="rotate(56.56, 400, 400)" opacity="0.24"></path><path d="M385.4 265.28C393.46 263.21 401.8 262.34 410.37 262.59 419 263.2 427.94 264.93 437.14 267.69 446.5 270.77 456.18 274.83 466.07 279.71 476.08 284.86 486.2 290.77 496.14 297.28 505.87 303.97 515.03 311.19 523.19 318.8 530.49 326.51 536.22 334.54 539.96 342.76 542.25 351.03 542.24 359.44 539.82 367.85 536.08 376.29 530.33 384.71 522.93 392.97 515.39 401.24 507.57 408.94 500.04 416.03 493.65 423.12 488.06 429.59 483.38 435.41 478.88 443.85 473.85 457.74 471.75 463.35 469.58 468.74 460.87 478.06 453.91 482.31 448.81 485.53 442.71 488.61 435.72 491.52 428.66 494.95 420.79 498.21 412.2 501.2 403.6 504.62 394.72 507.46 385.7 509.65 376.69 512 367.53 513.52 358.34 514.17 349.17 514.74 339.99 514.31 330.97 512.91 322.07 511.3 313.44 508.69 305.32 505.12 297.54 501.35 290.5 496.67 284.46 491.19 279.07 485.56 274.92 479.2 272.22 472.24 270.34 465.2 269.95 457.63 271.12 449.64 272.87 441.63 275.9 433.24 280.06 424.58 284.14 415.92 288.66 407.39 293.34 399.08 297.32 390.76 301.24 382.62 305 374.73 307.92 366.78 310.79 359.04 313.68 351.55 315.95 343.97 318.5 336.62 321.43 329.55 324.06 322.38 327.3 315.47 331.2 308.95 335.03 302.33 339.62 296.11 344.96 290.42 350.29 284.72 356.37 279.61 363.14 275.25 369.9 271.02 377.33 267.65 385.4 265.28" stroke-dasharray="11 10" transform="rotate(60.599999999999994, 400, 400)" opacity="0.75"></path><path d="M392.02 276.01C399.47 274.07 407.27 273.2 415.33 273.33 423.45 273.76 431.88 275.18 440.53 277.52 449.26 280.13 458.22 283.6 467.25 287.83 476.26 292.29 485.21 297.43 493.8 303.14 502.08 309 509.69 315.37 516.26 322.1 522.02 328.93 526.34 336.08 528.91 343.41 530.31 350.79 529.77 358.33 527.24 365.89 523.7 373.46 518.49 381.04 511.88 388.51 505.16 395.97 498.11 402.95 491.17 409.4 485.1 415.85 479.54 421.78 474.64 427.16 469.29 434.99 462.04 448.18 459.06 453.66 456.34 458.99 447.96 468.38 441.8 472.65 437.36 475.81 432.06 478.8 425.93 481.58 419.76 484.78 412.8 487.78 405.11 490.48 397.43 493.52 389.41 496.02 381.21 497.93 373.04 499.98 364.71 501.29 356.35 501.84 348.07 502.35 339.82 502.01 331.77 500.81 323.9 499.48 316.36 497.27 309.36 494.23 302.73 491.03 296.83 487.03 291.89 482.3 287.53 477.44 284.29 471.91 282.34 465.81 281.06 459.63 281.08 452.94 282.44 445.81 284.25 438.66 287.17 431.11 291.1 423.25 294.96 415.39 299.25 407.6 303.73 399.95 307.66 392.28 311.6 384.74 315.45 377.39 318.61 370.01 321.73 362.78 324.86 355.77 327.43 348.71 330.18 341.83 333.22 335.23 335.92 328.55 339.08 322.13 342.77 316.07 346.31 309.96 350.49 304.23 355.32 299 360.09 293.78 365.55 289.11 371.68 285.13 377.79 281.28 384.57 278.19 392.02 276.01" stroke-dasharray="10 7" transform="rotate(64.64, 400, 400)" opacity="0.74"></path><path d="M399.58 286.73C406.41 284.94 413.57 284.09 420.99 284.12 428.43 284.39 436.14 285.53 444 287.47 451.87 289.64 459.86 292.57 467.78 296.18 475.6 299.97 483.21 304.38 490.36 309.31 497.16 314.37 503.24 319.9 508.32 325.77 512.7 331.73 515.8 337.99 517.39 344.45 518.08 350.95 517.17 357.61 514.62 364.31 511.34 371.04 506.68 377.79 500.84 384.46 494.91 391.14 488.63 397.41 482.33 403.25 476.65 409.08 471.28 414.48 466.34 419.43 460.44 426.67 451.43 439.14 447.61 444.46 444.22 449.67 435.63 458.94 429.93 463.16 425.92 466.19 421.21 469.05 415.79 471.67 410.36 474.62 404.22 477.34 397.43 479.75 390.64 482.44 383.54 484.62 376.27 486.25 369.03 488.01 361.67 489.12 354.31 489.56 347.05 490 339.87 489.7 332.94 488.67 326.21 487.56 319.84 485.69 314.02 483.09 306.17 478.68 295.29 466.37 292.8 458.67 292.04 453.31 292.39 447.44 293.87 441.14 295.69 434.83 298.48 428.11 302.13 421.07 305.74 414.01 309.77 406.97 314.01 400.01 317.83 393.04 321.72 386.15 325.58 379.4 328.89 372.63 332.21 365.98 335.53 359.51 338.37 353.01 341.34 346.68 344.52 340.6 347.37 334.47 350.57 328.59 354.17 323.04 357.6 317.48 361.53 312.27 366.01 307.52 370.4 302.8 375.4 298.59 380.99 295 386.55 291.52 392.75 288.72 399.58 286.73" stroke-dasharray="8 4" transform="rotate(68.68, 400, 400)" opacity="0.78"></path><path d="M407.18 297.45C419.54 294.38 433.03 294.56 446.79 297.56 460.45 301.26 473.88 307.59 485.6 315.83 495.98 324.53 503.1 334.83 505.45 345.98 505.12 357.28 499.74 369.19 489.8 380.99 479.6 392.8 468.6 403.33 458.42 412.35 450.76 421.47 443.95 429.3 437.59 435.77 432.67 442.73 426.68 448.79 419.05 453.81 411.6 459.78 401.91 465.02 390.05 469.03 378.18 473.9 365.45 476.71 352.84 477.35 340.61 478.06 329.1 476.15 319.51 471.78 311.11 467.15 305.5 460.06 303.6 450.94 303.27 441.67 306.52 430.57 313.17 418.09 319.66 405.61 327.4 392.99 335.37 380.8 341.64 368.57 348.19 356.68 355.1 345.7 360.84 334.64 367.85 324.5 376.38 315.99 384.57 307.64 394.82 301.19 407.18 297.45" stroke-dasharray="9 3" transform="rotate(72.72, 400, 400)" opacity="0.29"></path><path d="M413.95 308.18C424.93 305.39 436.61 305.39 448.21 307.78 459.61 310.71 470.4 315.88 479.37 322.75 487.2 329.96 492.13 338.62 493.13 348.11 492.23 357.71 487.34 367.95 478.76 378.23 470 388.51 460.25 397.85 450.83 405.99 443.13 414.22 435.91 421.47 429.07 427.59 423.41 434.1 417.11 439.84 409.8 444.61 402.72 450.08 394.05 454.79 383.83 458.31 373.61 462.47 362.9 464.78 352.55 465.22 342.52 465.76 333.35 464.1 326.01 460.36 319.61 456.48 315.63 450.5 314.76 442.73 314.99 434.85 318.17 425.31 324.21 414.45 330.12 403.59 337.27 392.48 344.8 381.68 351.1 370.87 357.77 360.32 364.74 350.58 370.77 340.81 377.74 331.89 385.83 324.42 393.59 317.12 402.96 311.48 413.95 308.18" stroke-dasharray="6 8" transform="rotate(76.76, 400, 400)" opacity="0.53"></path><path d="M419.08 318.9C428.61 316.43 438.37 316.28 447.72 318.13 456.86 320.37 465.14 324.5 471.65 330.08 477.28 335.91 480.46 343.01 480.49 350.9 479.28 358.87 474.96 367.48 467.72 376.28 460.35 385.06 451.94 393.19 443.5 400.41 436.17 407.71 428.98 414.27 422.05 419.92 416.01 425.86 409.58 431.14 402.63 435.53 395.9 440.42 388.17 444.57 379.5 447.58 370.83 451.07 362.09 452.92 353.91 453.18 342.48 452.82 327.67 443.18 326.26 434.16 326.88 427.57 329.89 419.52 335.25 410.27 340.52 401.01 346.95 391.47 353.87 382.15 359.96 372.83 366.49 363.71 373.29 355.28 379.41 346.88 386.22 339.22 393.79 332.82 401.1 326.58 409.55 321.76 419.08 318.9" stroke-dasharray="0 2" transform="rotate(80.80000000000001, 400, 400)" opacity="0.95"></path><path d="M421.98 329.62C429.97 327.5 437.8 327.25 444.98 328.63 455 331.86 467.23 345.23 467.6 354.42 466.28 360.85 462.61 367.89 456.68 375.2 450.67 382.51 443.65 389.4 436.38 395.63 429.76 401.93 423.03 407.69 416.45 412.74 410.44 417.99 404.21 422.68 397.78 426.58 391.54 430.81 384.76 434.35 377.57 436.86 370.38 439.69 363.47 441.12 357.27 441.23 348.67 440.8 338.47 432.78 338.11 425.38 338.95 419.99 341.67 413.37 346.29 405.71 350.84 398.05 356.45 390.11 362.58 382.31 368.2 374.54 374.31 366.92 380.67 359.88 386.57 352.88 393 346.51 399.87 341.21 406.57 336.03 413.99 332.02 421.98 329.62" stroke-dasharray="5 9" transform="rotate(84.84, 400, 400)" opacity="0.32"></path><path d="M422.31 340.35C435.1 337.04 445.94 339.53 451.94 346.04 456.54 352.98 454.73 363.35 445.64 375.05 436.33 386.74 424.04 397.57 412.08 406.04 401.43 415.02 389.78 422.36 378.26 426.14 362.07 430.63 349.12 417.49 357.33 400.93 364.68 388.76 375.41 375.66 386.83 364.41 397.25 353.33 409.5 344.37 422.31 340.35" stroke-dasharray="0 4" transform="rotate(88.88, 400, 400)" opacity="0.74"></path><path d="M420.02 351.07C433.21 349.28 442.21 363.28 434.6 375.82 427.74 384.6 418.27 393.02 408.71 399.78 399.76 406.81 390.21 412.54 381.5 415.41 369.61 418.58 361.8 408.47 368.37 396.13 374.13 387.06 382.66 377.31 391.83 368.96 400.57 360.73 410.47 354.08 420.02 351.07" stroke-dasharray="4 0" transform="rotate(92.92, 400, 400)" opacity="0.73"></path><path d="M415.4 361.8C427.99 358.37 432.22 365.74 423.57 377.49 414.7 389.23 398.67 401.03 386.9 404.69 375.12 409.14 371.42 403.45 379.41 391.46 387.2 379.46 402.79 365.96 415.4 361.8" stroke-dasharray="8 1" transform="rotate(96.96, 400, 400)" opacity="0.37"></path></g></svg>